# xmcd
#
# Track frame offsets:
#	150
#	13477
#	23934
#	42420
#	54624
#	69261
#	87311
#	99659
#	110103
#	126172
#	135593
#	148063
#	159938
#	172527
#	185219
#	196404
#	205796
#	220335
#
# Disc length: 3099 seconds
#
# Revision: 0
# Processed by: cddbd v1.4PL0 Copyright (c) Steve Scherf et al.
# Submitted via: dBpowerAMP V4.0
#
DISCID=0b0c1912
DTITLE=Various Artist - Travelling Country -- A Country Journey Through the USA
DYEAR=2003
DGENRE=Country
TTITLE0=Bobby Bare - Detroit City
TTITLE1=George Hamilton - Abilene
TTITLE2=Lynn Anderson - Midnight Train to Georgia
TTITLE3=Merle Haggard - Okie from Muskogee
TTITLE4=Jeannie C Riley - Harper Valley PTA
TTITLE5=David Houston - Nashville
TTITLE6=Jack Blanchard and Misty Morgan - Tennessee Birdwalk
TTITLE7=Mel McDaniel - Louisiana Saturday Night
TTITLE8=Johnny Russell - Luchenbach, Texas
TTITLE9=Connie Smith - Cincinnati, Ohio
TTITLE10=Johnny Paycheck - Georgia in a Jug
TTITLE11=Merle Travis - Kentucky Means Paradise
TTITLE12=Hank Thompson - Oklahoma Hills
TTITLE13=Red Foley - Chattanoogie Shoe-Shine Boy
TTITLE14=Ferlin Husky - San Antonio Rose
TTITLE15=Moe Bandy - Deep in the Heart of Texas
TTITLE16=Faron Young - Saginaw, Michigan
TTITLE17=Susan Raye - LA International Airport
EXTD=thomas rush <-- that's me
EXTT0=
EXTT1=
EXTT2=
EXTT3=
EXTT4=
EXTT5=
EXTT6=
EXTT7=
EXTT8=
EXTT9=
EXTT10=
EXTT11=
EXTT12=
EXTT13=
EXTT14=
EXTT15=
EXTT16=
EXTT17=
PLAYORDER=
